<?xml version="1.0" encoding="UTF-8" standalone="no"?>
<!-- Generator: Adobe Illustrator 18.0.0, SVG Export Plug-In . SVG Version: 6.00 Build 0)  -->

<svg
   version="1.1"
   id="Layer_3"
   x="0px"
   y="0px"
   viewBox="0 0 512 512"
   style="enable-background:new 0 0 512 512;"
   xml:space="preserve"
   sodipodi:docname="qtc.svg"
   inkscape:version="1.2 (dc2aedaf03, 2022-05-15)"
   xmlns:inkscape="http://www.inkscape.org/namespaces/inkscape"
   xmlns:sodipodi="http://sodipodi.sourceforge.net/DTD/sodipodi-0.dtd"
   xmlns="http://www.w3.org/2000/svg"
   xmlns:svg="http://www.w3.org/2000/svg"><defs
   id="defs29">
	
	
	
</defs><sodipodi:namedview
   id="namedview27"
   pagecolor="#ffffff"
   bordercolor="#666666"
   borderopacity="1.0"
   inkscape:showpageshadow="2"
   inkscape:pageopacity="0.0"
   inkscape:pagecheckerboard="0"
   inkscape:deskcolor="#d1d1d1"
   showgrid="false"
   inkscape:zoom="1.6386719"
   inkscape:cx="230.36949"
   inkscape:cy="256.30513"
   inkscape:window-width="1920"
   inkscape:window-height="1019"
   inkscape:window-x="0"
   inkscape:window-y="0"
   inkscape:window-maximized="1"
   inkscape:current-layer="Layer_3" />
<g
   id="g873"><circle
     style="fill:#2a7fff"
     cx="256"
     cy="256"
     r="230"
     id="circle18" /><path
     style="fill:#ffffff"
     d="m 221.2,361.404 c 33.219,-11.567 56.947,-44.49 56.947,-95.801 0,-59.024 -35.296,-101.142 -89.573,-101.142 -53.981,0 -93.133,41.226 -93.133,105.293 0,64.362 40.635,99.361 88.091,101.141 3.856,0 8.009,1.482 12.161,2.966 23.135,8.008 49.533,16.017 76.522,23.135 l 7.415,-21.65 c -16.907,-2.966 -38.559,-7.712 -58.431,-12.754 z m -34.703,-11.567 c -40.338,0 -63.769,-38.262 -63.472,-80.675 -0.296,-43.304 21.059,-83.643 64.659,-83.643 42.414,0 63.176,41.228 63.176,81.269 0,45.676 -23.135,83.048 -64.363,83.049 z"
     id="path20" /><path
     style="fill:#ffffff"
     d="m 416.212,170.059 c -3.977,-22.638 -23.012,-39.733 -43.647,-47.918 -11.509,-4.334 -23.83,-7.965 -36.279,-6.971 -5.219,1.095 -10.901,-1.253 -15.83,1.05 -0.733,3.241 0.06,6.853 -1.293,10.06 -2.059,7 -9.812,9.388 -16.45,9.234 -4.355,1.047 -9.778,-1.281 -10.165,-6.198 0.778,-3.916 -0.177,-8.706 -4.152,-10.595 -4.388,-1.569 -10.012,-1.236 -13.921,1.446 -0.759,0.645 -1.362,1.474 -1.757,2.39 -1.02,10.795 0.263,21.767 0.541,32.643 0.783,6.402 -0.164,12.886 0.917,19.216 1.315,5.912 8.293,6.24 13.136,5.464 4.652,-0.166 7.843,-4.578 7.096,-9.036 -0.75,-3.637 -0.011,-8.524 4.335,-9.332 5.478,-0.941 9.705,-1.555 14.955,0.918 5.751,2.709 7.208,5.039 7.511,9.693 0.176,2.702 0.738,9.511 0.506,18.008 0.011,-0.005 0.024,-0.008 0.036,-0.013 v 33.959 h -22.245 v 19.871 h 22.245 v 78.303 c 0,16.907 2.67,29.659 10.085,37.371 6.228,7.118 16.016,10.975 28.177,10.975 10.085,0 18.093,-1.484 23.135,-3.56 l -1.186,-19.576 c -3.263,0.891 -8.305,1.78 -15.127,1.78 -14.534,0 -19.575,-10.084 -19.575,-27.88 v -77.412 h 37.371 V 224.078 H 347.26 V 182.85 c 0,0 -0.006,-18.063 4.191,-24.592 4.963,-8.557 13.155,-12.126 23.237,-10.164 15.353,2.632 28.273,13.174 38.432,24.426 1.865,3.454 4.366,0.23 3.092,-2.461 z"
     id="path22" /></g>
</svg>
